<svg version="1.1" id="Layer_1" xmlns="http://www.w3.org/2000/svg" xmlns:xlink="http://www.w3.org/1999/xlink" x="0px" y="0px"
	 width="100%" viewBox="0 0 1024 1024" enable-background="new 0 0 1024 1024" xml:space="preserve">
<path fill="#000000" opacity="1.000000" stroke="none" 
	d="
M542.974609,404.953674 
	C534.388977,416.446259 525.924255,427.586182 517.709656,438.907593 
	C515.196594,442.371124 513.377808,442.615051 510.405212,439.433624 
	C500.624023,428.965149 490.668335,418.658844 480.718933,408.348846 
	C472.588287,399.923553 463.897369,399.872284 456.252655,408.632019 
	C448.043732,418.038330 440.263947,427.819000 432.285156,437.426544 
	C428.439453,442.057312 427.832794,442.137909 423.963196,437.697784 
	C408.076019,419.468109 399.956207,398.040619 397.922974,374.118561 
	C397.665710,371.091858 398.992554,369.806335 401.917175,369.806244 
	C405.249268,369.806122 408.582123,369.765289 411.913269,369.685730 
	C415.181274,369.607666 417.541412,368.129028 417.538757,364.679565 
	C417.536224,361.332825 415.291534,359.569824 412.049927,359.402435 
	C408.725800,359.230804 405.386902,359.293060 402.055420,359.332977 
	C399.219025,359.366943 397.880371,358.587463 398.202332,355.229340 
	C402.956940,305.634003 441.406952,264.249634 490.263306,256.996429 
	C502.345764,255.202682 502.310913,252.650146 502.274658,267.109650 
	C502.268158,269.708679 501.695953,272.574371 504.609833,274.254303 
	C508.078522,276.254089 512.160706,274.066986 512.580261,269.765991 
	C512.870239,266.792419 512.832275,263.766327 512.686768,260.776062 
	C512.507385,257.090210 513.885559,255.672501 517.700317,256.112335 
	C556.870483,260.628723 585.701904,280.387451 604.560425,314.872437 
	C611.280396,327.160797 614.978455,340.367798 616.388245,354.285553 
	C616.796387,358.315308 615.357300,359.742981 611.425598,359.425629 
	C608.612915,359.198578 605.752319,359.246948 602.935913,359.465790 
	C599.582581,359.726318 597.152466,361.312622 597.260315,365.085144 
	C597.365845,368.778290 599.894836,369.745422 603.070984,369.762695 
	C605.070312,369.773590 607.069824,369.766693 609.069214,369.763702 
	C616.249695,369.752960 619.305786,374.117432 615.321899,380.044037 
	C608.083923,390.811646 600.057922,401.052582 592.274048,411.448303 
	C590.258057,414.140717 588.557129,412.440613 587.101501,410.628784 
	C583.449829,406.083405 579.870361,401.479645 576.189880,396.957916 
	C567.114868,385.808777 556.015869,386.331940 547.917053,398.221222 
	C546.417542,400.422577 544.770630,402.523529 542.974609,404.953674 
M542.401306,388.769470 
	C544.786865,385.255035 543.605408,382.508453 540.526855,380.201508 
	C533.608459,375.017181 526.847351,369.598419 519.691711,364.764343 
	C515.278809,361.783173 513.291626,358.570251 513.468567,352.963440 
	C513.934998,338.178345 513.691406,323.367920 513.567017,308.568970 
	C513.533997,304.644257 512.277466,301.098602 507.395386,301.147858 
	C502.616180,301.196045 501.720612,304.879425 501.815887,308.485138 
	C502.272705,325.771515 501.651276,343.043427 501.439148,360.320923 
	C501.389923,364.330017 502.555634,367.711548 506.133118,370.179901 
	C515.161682,376.409546 524.100281,382.772858 532.976501,389.218140 
	C536.076233,391.468903 538.918457,392.031219 542.401306,388.769470 
z"/>
<path fill="#000000" opacity="1.000000" stroke="none" 
	d="
M395.534241,416.511566 
	C401.123871,428.779175 408.394958,439.510162 417.124329,449.226990 
	C419.405487,451.766205 419.449860,453.542725 417.147583,455.980225 
	C414.524353,458.757385 412.084625,461.745178 409.861877,464.853638 
	C407.257721,468.495422 405.176880,468.586121 402.140228,465.116119 
	C390.857300,452.223022 381.427063,438.164520 374.955933,422.281830 
	C340.538177,337.807129 389.740417,250.077957 468.150391,227.403702 
	C501.422607,217.782181 533.969971,220.378906 565.724365,233.951218 
	C567.523621,234.720261 569.497131,235.325745 571.151245,237.627945 
	C566.044983,242.068832 561.856750,247.303009 561.925964,254.861496 
	C499.411102,230.895554 446.088989,242.688095 406.617737,297.327332 
	C380.376160,333.653076 378.481598,374.591339 395.534241,416.511566 
z"/>
<path fill="#000000" opacity="1.000000" stroke="none" 
	d="
M441.850250,460.828247 
	C434.825043,469.312744 428.072266,477.562744 421.224884,485.733398 
	C417.371368,490.331635 413.258362,491.152222 409.577698,488.283752 
	C405.796417,485.336914 405.747955,480.761017 409.683258,475.983032 
	C426.843719,455.147736 444.042847,434.344238 461.258423,413.554474 
	C465.625854,408.280243 471.048096,408.131195 475.801605,413.135254 
	C487.507965,425.458679 499.191101,437.804352 510.827667,450.193634 
	C511.950958,451.389557 512.683960,452.952087 513.907471,454.056305 
	C516.528870,452.670563 517.383545,450.969147 518.456543,449.536926 
	C530.644470,433.268066 542.814575,416.985840 554.972229,400.694305 
	C559.158020,395.085236 565.162109,394.875305 569.603577,400.263580 
	C576.065430,408.102753 582.497131,415.966705 588.958374,423.806396 
	C589.151306,424.040527 589.529846,424.121735 589.960388,424.346588 
	C592.440247,423.806854 593.399231,421.487488 594.752747,419.707947 
	C612.102295,396.896149 629.404297,374.048187 646.717773,351.208954 
	C647.120483,350.677673 647.501953,350.129700 647.917847,349.609192 
	C651.848999,344.689972 655.997192,343.728729 659.900513,346.825653 
	C663.321289,349.539734 663.503906,354.266693 660.036987,358.866669 
	C645.498596,378.156769 630.857178,397.369171 616.303589,416.647827 
	C610.381897,424.492096 604.639282,432.471527 598.720093,440.317719 
	C593.567627,447.147583 588.318054,447.259705 582.804688,440.663757 
	C576.821106,433.505249 570.963135,426.241852 565.016968,419.051849 
	C564.302124,418.187408 563.634766,417.131714 561.723816,417.078217 
	C555.373901,425.607758 548.818604,434.382294 542.297241,443.181976 
	C536.146729,451.481323 530.015198,459.794952 523.906372,468.125061 
	C518.799988,475.088165 513.257629,475.493164 507.346558,469.221252 
	C496.946655,458.186310 486.560211,447.138550 476.207886,436.058960 
	C474.054626,433.754395 472.074677,431.287903 469.463104,428.255341 
	C459.192688,439.100983 451.011444,450.159271 441.850250,460.828247 
z"/>
<path fill="#000000" opacity="1.000000" stroke="none" 
	d="
M227.451096,589.426086 
	C225.100845,581.956177 222.878769,574.860779 220.468323,567.163879 
	C226.835922,566.337708 232.448349,566.566528 238.026627,566.864014 
	C240.566849,566.999573 240.641541,569.628723 241.200211,571.434631 
	C244.936722,583.512756 248.579910,595.619690 252.256363,607.716370 
	C252.673965,609.090393 252.777710,610.608337 254.349670,612.043701 
	C258.070648,600.772156 261.738953,589.790833 265.319733,578.781006 
	C270.172546,563.859924 266.915314,567.226562 282.182098,566.626892 
	C285.699677,566.488647 287.210480,567.934998 288.165771,571.110474 
	C292.046783,584.011169 296.100677,596.860046 300.118134,609.719482 
	C300.400024,610.621765 300.254059,611.785706 301.862946,612.482483 
	C305.683899,600.246216 309.502014,588.070862 313.286255,575.884949 
	C316.718811,564.831543 314.818054,566.910400 325.640900,566.714905 
	C327.933014,566.673401 330.300293,566.254395 332.534668,567.262939 
	C333.891144,569.321472 332.603363,571.202942 332.039581,572.978027 
	C325.844910,592.482117 319.444214,611.921265 313.356323,631.458191 
	C312.000610,635.808838 309.958130,637.608459 305.222992,637.392090 
	C289.407043,636.669434 292.617004,640.433289 287.411560,624.321655 
	C284.109375,614.101074 280.933136,603.839783 277.242493,592.145752 
	C272.950500,605.423340 269.189667,617.263550 265.289520,629.057556 
	C262.201782,638.394958 263.572998,637.352600 254.026901,637.258362 
	C240.436249,637.124268 243.505569,639.310913 239.169235,626.445862 
	C235.077896,614.307617 231.425018,602.021606 227.451096,589.426086 
z"/>
<path fill="#000000" opacity="1.000000" stroke="none" 
	d="
M281.704895,725.278870 
	C267.426270,708.941711 254.955292,691.793274 244.964127,672.684937 
	C250.338242,670.071716 252.348892,673.273193 254.351471,676.727356 
	C268.926453,701.867188 287.102600,724.149170 308.508026,743.724121 
	C352.491943,783.946777 403.571442,809.872803 462.580536,819.875061 
	C485.046906,823.683289 507.681396,824.941650 530.271973,823.481995 
	C609.953064,818.333435 677.185547,786.140442 732.292664,728.496826 
	C747.553772,712.533325 760.501892,694.793152 771.913330,675.903015 
	C774.779053,671.159180 774.914307,671.240906 780.347900,672.344421 
	C781.015137,674.423828 779.448853,675.783264 778.560486,677.253235 
	C735.773743,748.052368 675.129028,795.936340 595.511902,819.114441 
	C563.767761,828.355713 531.149475,831.875061 498.181335,830.058838 
	C415.927673,825.527649 346.485382,792.805298 289.318726,733.698914 
	C286.771637,731.065369 284.398499,728.263672 281.704895,725.278870 
z"/>
<path fill="#000000" opacity="1.000000" stroke="none" 
	d="
M487.597961,204.472092 
	C506.364594,203.043472 524.688538,202.995026 542.947449,204.864471 
	C567.201904,207.347794 590.900208,212.531372 613.866516,220.832779 
	C615.865112,221.555206 618.065125,221.961319 619.741272,223.789352 
	C618.584961,228.388168 615.867371,228.570541 611.889526,227.072128 
	C572.887085,212.380157 532.366882,207.648422 491.074890,210.513321 
	C438.592682,214.154648 390.501984,231.343796 347.222137,261.214874 
	C282.248108,306.058960 240.427246,367.225555 220.996201,443.609100 
	C213.058243,474.813354 211.003204,506.643433 213.398270,538.748474 
	C213.608337,541.564087 214.103302,544.358276 214.319016,547.173645 
	C214.456924,548.973328 214.745590,551.005493 211.927505,551.168030 
	C209.332230,551.317688 208.316833,549.806519 208.066879,547.571106 
	C207.604492,543.435669 207.063293,539.298401 206.854752,535.146790 
	C202.582687,450.097931 227.308426,374.556854 282.919495,310.012329 
	C330.686462,254.571960 390.868683,219.922806 463.409210,207.555954 
	C471.284943,206.213287 479.170685,205.071487 487.597961,204.472092 
z"/>
<path fill="#000000" opacity="1.000000" stroke="none" 
	d="
M793.216064,581.856079 
	C797.894348,582.064514 802.181641,581.337280 806.440735,582.354431 
	C806.234619,585.581543 803.837585,586.609436 802.327087,588.211914 
	C798.217468,592.571960 794.046997,596.883728 789.720093,601.026001 
	C787.651489,603.006287 787.422485,604.611755 789.072144,607.013123 
	C794.537231,614.968445 799.838806,623.036926 805.139099,631.104004 
	C806.196716,632.713745 807.799133,634.119263 807.675049,636.995605 
	C801.648865,637.589233 795.589294,637.588867 789.561340,637.022339 
	C787.472351,636.825989 786.601807,634.496155 785.468811,632.895081 
	C781.731140,627.613281 778.063599,622.281799 774.195801,616.720154 
	C769.805603,619.347717 766.714050,621.834778 766.869568,627.579102 
	C767.180420,639.061401 767.421570,637.219543 756.899780,637.373901 
	C756.233948,637.383728 755.557190,637.293152 754.903687,637.382568 
	C750.111206,638.037903 748.600830,635.980957 748.650391,631.203674 
	C748.871399,609.895996 748.837708,588.584534 748.718323,567.275452 
	C748.695618,563.214172 750.012024,561.626831 754.194519,561.738953 
	C768.846191,562.131836 766.921631,559.890198 766.997864,574.435486 
	C767.041382,582.732300 767.005798,591.029541 767.005798,600.568665 
	C773.417175,595.636414 778.436951,590.929138 783.119751,585.900208 
	C785.820129,583.000244 788.739319,581.304443 793.216064,581.856079 
z"/>
<path fill="#000000" opacity="1.000000" stroke="none" 
	d="
M501.958496,622.091797 
	C505.202850,626.879456 508.237762,631.373901 511.925385,636.834961 
	C504.739716,637.571106 498.700348,637.462158 492.674591,636.986328 
	C490.874390,636.844116 490.134796,634.975586 489.186432,633.635742 
	C485.253723,628.079285 481.347534,622.504089 477.254089,616.683411 
	C472.853943,619.361633 469.428467,622.099060 470.060181,627.675232 
	C470.264648,629.480286 470.040558,631.332581 470.031128,633.163391 
	C470.016602,635.990356 468.815582,637.382996 465.781128,637.318970 
	C448.654388,636.957458 451.980865,639.728210 451.785126,624.070618 
	C451.550049,605.264160 451.869049,586.450989 451.649353,567.644165 
	C451.594604,562.956604 453.230133,561.640076 457.726715,561.703552 
	C469.019348,561.862793 468.725128,561.707336 469.611511,573.042847 
	C470.310394,581.980164 469.177155,590.896973 469.501526,601.322327 
	C474.466431,596.834167 479.139404,593.756775 482.281769,589.539001 
	C489.622742,579.685608 499.564362,581.790771 509.322632,582.134888 
	C510.079132,584.556030 508.265808,585.385986 507.211365,586.482727 
	C502.712585,591.162048 498.343964,596.003296 493.495331,600.296936 
	C490.033569,603.362488 490.345551,605.799072 492.897675,609.104797 
	C496.046234,613.183105 498.815735,617.554016 501.958496,622.091797 
z"/>
<path fill="#000000" opacity="1.000000" stroke="none" 
	d="
M336.891174,602.364380 
	C342.654938,579.537598 372.012421,575.689392 386.729248,587.874817 
	C396.880646,596.280151 399.821838,610.679199 393.955322,622.762146 
	C388.479736,634.039917 373.946960,640.292664 360.412994,637.903381 
	C343.235443,634.870728 332.658020,620.016296 336.891174,602.364380 
M353.662079,611.939819 
	C353.801575,612.418396 353.950409,612.894531 354.079132,613.375977 
	C355.980591,620.488708 361.448578,624.550964 367.784180,623.554626 
	C375.356323,622.363892 379.476013,616.413513 378.704742,607.781189 
	C378.078125,600.767761 373.200592,596.212769 366.217072,596.119385 
	C358.225525,596.012512 353.929657,601.090271 353.662079,611.939819 
z"/>
<path fill="#000000" opacity="1.000000" stroke="none" 
	d="
M669.872437,637.360596 
	C665.046448,636.708252 660.088257,639.212646 656.382080,634.763184 
	C656.087952,634.410034 653.991272,635.416504 652.813232,635.964844 
	C646.294617,638.999146 639.621460,639.130798 632.886902,636.946289 
	C625.256409,634.471191 621.357483,628.734802 621.618042,620.681091 
	C621.859436,613.216431 626.439209,607.777222 634.030457,605.783264 
	C638.766296,604.539307 643.588257,604.752014 648.404663,604.625000 
	C650.992310,604.556702 653.719666,605.098816 656.270569,603.450928 
	C656.176147,598.443481 652.603821,597.084351 648.729004,596.415588 
	C643.523193,595.517029 638.350586,596.114929 633.702759,598.688721 
	C630.415649,600.508972 629.113281,599.357178 627.760925,596.342163 
	C623.655518,587.189819 623.848999,586.776184 633.368225,583.696594 
	C640.335449,581.442627 647.462219,581.190918 654.585083,581.837952 
	C666.352295,582.906799 673.713989,590.841125 674.183228,603.144165 
	C674.563416,613.112122 674.237793,623.105713 674.326782,633.087036 
	C674.352112,635.928589 673.457153,637.587341 669.872437,637.360596 
M647.095459,614.460876 
	C645.329956,614.911316 643.490112,615.178833 641.817810,615.858582 
	C639.735657,616.704895 639.052673,618.581299 639.076416,620.745483 
	C639.101440,623.019226 640.183777,624.682739 642.335449,625.222534 
	C646.514221,626.270874 650.625977,626.178162 654.079224,623.117859 
	C656.055359,621.366638 657.227173,619.081360 656.458313,616.433533 
	C655.615112,613.529724 652.931335,614.662476 650.938477,614.411316 
	C649.958008,614.287720 648.946960,614.407471 647.095459,614.460876 
z"/>
<path fill="#000000" opacity="1.000000" stroke="none" 
	d="
M731.908508,298.094452 
	C774.098999,342.392395 801.049133,394.247406 813.471313,453.771362 
	C818.812805,479.366425 820.095093,505.208679 819.178528,531.224915 
	C818.985657,536.698486 818.120239,542.147705 817.585144,547.610168 
	C817.320068,550.316772 815.886353,551.462341 813.204529,550.960022 
	C810.575012,550.467590 811.038940,548.629395 811.235901,546.711670 
	C819.412109,467.100494 799.014465,395.348511 751.653076,331.107483 
	C729.668640,301.287750 702.838135,276.588196 671.703918,256.533447 
	C669.696838,255.240631 666.922119,254.165451 669.311340,250.829117 
	C671.549316,247.703888 673.387695,250.035004 675.182129,251.170197 
	C695.984863,264.330566 714.743652,279.974609 731.908508,298.094452 
z"/>
<path fill="#000000" opacity="1.000000" stroke="none" 
	d="
M510.853699,575.902954 
	C510.899536,566.630737 510.899536,566.643311 519.930237,566.651428 
	C536.073608,566.665894 552.219238,566.813477 568.359009,566.574158 
	C573.016174,566.505127 574.785706,568.099121 574.273560,572.610168 
	C574.105591,574.089417 574.156860,575.607910 574.250732,577.099548 
	C574.449097,580.252075 573.189270,581.662537 569.888184,581.495972 
	C565.904419,581.295044 561.880005,581.702942 557.916260,581.355347 
	C553.165466,580.938904 551.863159,583.020447 551.917847,587.432434 
	C552.099426,602.075745 551.873474,616.724670 552.111755,631.366455 
	C552.184448,635.837280 550.970093,637.514038 546.227844,637.426270 
	C533.716614,637.194702 533.704651,637.402039 533.688660,625.054626 
	C533.672058,612.239746 533.562805,599.423401 533.733765,586.610901 
	C533.785278,582.751221 532.567017,581.127747 528.593994,581.355408 
	C524.447266,581.593140 520.268005,581.240845 516.117432,581.443054 
	C512.370789,581.625488 510.328674,580.440491 510.853699,575.902954 
z"/>
<path fill="#000000" opacity="1.000000" stroke="none" 
	d="
M651.197876,219.844376 
	C655.581970,218.054092 658.765503,219.331070 661.012146,222.811050 
	C663.177490,226.165161 661.869995,229.124786 659.498230,231.866943 
	C644.160767,249.599976 628.883118,267.384979 613.500793,285.079041 
	C607.788696,291.649506 602.657959,291.443542 596.954956,284.876465 
	C590.411743,277.341919 583.723145,269.933533 577.189026,262.391205 
	C574.868103,259.712067 573.953552,256.660065 575.610229,253.156677 
	C576.920105,250.386734 579.299194,249.383759 582.023132,249.103638 
	C585.124878,248.784668 587.383545,250.581528 589.360718,252.701843 
	C593.329773,256.958221 597.412354,261.123322 601.150085,265.576263 
	C604.016968,268.991730 606.118164,268.871887 609.077637,265.570343 
	C621.732361,251.453064 633.864868,236.861954 647.173950,223.336472 
	C648.332153,222.159439 649.622986,221.112885 651.197876,219.844376 
z"/>
<path fill="#000000" opacity="1.000000" stroke="none" 
	d="
M724.336487,618.542480 
	C725.670776,616.627014 727.031433,616.250549 728.819824,617.290466 
	C729.966370,617.957031 731.209778,618.462280 732.426758,619.001587 
	C740.621033,622.632324 741.002319,624.677612 734.652710,631.018860 
	C726.648010,639.013123 710.682983,640.825378 699.055359,635.059448 
	C688.684631,629.916809 682.311279,617.922485 683.885010,606.510010 
	C685.653137,593.688660 694.552002,584.244507 707.261536,581.764771 
	C718.040894,579.661621 727.905396,581.390442 735.801270,589.523804 
	C741.156555,595.040039 740.523560,597.190857 733.577576,599.841187 
	C731.869263,600.492920 730.184875,601.214355 728.519958,601.970825 
	C726.792786,602.755371 725.566772,602.437622 724.111511,601.047668 
	C717.991272,595.201721 711.054138,594.761169 706.025452,599.663879 
	C700.928955,604.632690 700.690308,614.651855 705.547241,619.740417 
	C710.657410,625.094238 717.290344,624.757019 724.336487,618.542480 
z"/>
<path fill="#000000" opacity="1.000000" stroke="none" 
	d="
M438.204773,581.334961 
	C438.748474,581.220520 438.936462,581.126160 439.073029,581.175232 
	C446.198547,583.731873 440.862823,589.630798 442.338837,593.763062 
	C443.309357,596.480103 441.136841,597.226257 438.554871,597.408447 
	C428.684662,598.104675 424.542511,602.496399 424.416809,612.316101 
	C424.331696,618.965393 424.267792,625.628662 424.609772,632.264282 
	C424.794281,635.844604 424.026794,637.471436 420.100922,637.364624 
	C404.123230,636.930054 407.002289,639.493530 406.762207,624.375549 
	C406.572113,612.405579 406.715607,600.430115 406.730682,588.457092 
	C406.738892,581.940796 406.783875,581.912964 413.509888,581.863464 
	C415.006470,581.852417 416.503265,581.849487 417.999756,581.863586 
	C423.311951,581.913513 423.311920,581.916870 425.215240,586.827087 
	C428.946930,583.854553 433.019745,581.734619 438.204773,581.334961 
z"/>
<path fill="#000000" opacity="1.000000" stroke="none" 
	d="
M598.312134,622.003235 
	C598.314636,623.498352 598.315613,624.495667 598.317627,625.492920 
	C598.342712,637.831177 596.045593,639.612671 583.549683,637.308350 
	C581.125061,636.861145 580.689636,635.488281 580.689819,633.479553 
	C580.691101,617.689453 580.722778,601.899048 580.636536,586.109375 
	C580.620117,583.093933 581.917358,581.879089 584.788452,581.918152 
	C587.114502,581.949768 589.441956,581.904419 591.768433,581.869385 
	C595.066833,581.819702 598.505859,581.530090 598.093445,586.967590 
	C602.734253,583.677917 607.044739,581.747009 611.967224,581.230164 
	C614.951294,580.916931 616.424438,581.870911 616.299500,584.967957 
	C616.245911,586.295227 616.304382,587.626892 616.304993,588.956543 
	C616.308655,596.205505 616.307922,596.205505 609.037109,597.489746 
	C602.731506,598.603577 598.639038,603.318115 598.362854,610.037903 
	C598.205933,613.854675 598.319397,617.682495 598.312134,622.003235 
z"/>
<path fill="#000000" opacity="1.000000" stroke="none" 
	d="
M621.727905,294.736237 
	C623.675720,292.686493 625.380188,290.894867 626.883057,289.315155 
	C628.940063,289.289886 629.546143,290.588715 630.232056,291.673645 
	C638.763489,305.166504 644.581482,319.735718 647.541138,335.437195 
	C647.819092,336.912048 648.373474,338.378204 647.068848,339.644562 
	C641.184021,345.356720 637.052185,352.463562 631.854614,358.721313 
	C631.567200,359.067322 631.040955,359.214935 630.193909,359.704651 
	C627.792603,355.367462 628.715881,350.576233 628.069458,346.188385 
	C626.002319,332.157501 621.173279,319.168304 614.284668,306.922974 
	C612.137512,303.105988 611.818359,300.801727 616.435730,298.984711 
	C618.346252,298.232941 619.814880,296.358307 621.727905,294.736237 
z"/>
<path fill="#000000" opacity="1.000000" stroke="none" 
	d="
M574.549072,443.032227 
	C575.473206,459.567841 574.915222,475.702698 574.859436,491.834869 
	C574.853516,493.547485 574.407043,495.266968 572.716675,496.075806 
	C567.815002,498.421326 562.934021,500.849670 557.818848,502.290497 
	C556.185425,500.575897 556.691162,498.828491 556.687500,497.239960 
	C556.644836,478.768829 556.862610,460.293762 556.525879,441.828613 
	C556.421082,436.082458 558.455933,431.960663 563.273376,427.820740 
	C567.133301,432.676758 571.618835,436.958252 574.549072,443.032227 
z"/>
<path fill="#000000" opacity="1.000000" stroke="none" 
	d="
M502.999756,788.634705 
	C496.052032,799.489197 485.563599,802.784729 475.377533,797.598877 
	C466.350677,793.003235 462.056946,781.279297 465.772369,771.372314 
	C469.643860,761.049194 481.016174,755.648499 491.430939,759.187073 
	C501.547028,762.624023 507.635284,774.365723 504.561340,784.558960 
	C504.178955,785.827026 503.644531,787.049255 502.999756,788.634705 
M491.033508,770.195496 
	C488.970001,768.536926 486.906464,766.878357 484.525574,764.964722 
	C483.300262,767.725403 480.698120,768.811584 479.120789,770.841675 
	C476.403320,774.339355 478.354523,777.700134 484.276703,780.189148 
	C486.063690,780.940247 488.604034,781.466370 487.651031,784.152893 
	C486.848999,786.413940 484.627716,786.316833 482.523926,785.873535 
	C480.888458,785.528931 479.156281,784.111633 477.208130,786.389282 
	C479.060089,789.462097 483.790649,788.839355 485.201965,794.244507 
	C486.387177,790.509399 487.817139,789.083679 489.511810,787.728455 
	C493.254181,784.735657 492.594238,780.252563 488.348541,778.082153 
	C487.173096,777.481323 485.883392,777.103394 484.644379,776.627747 
	C483.021362,776.004578 481.367065,775.265869 482.041748,773.108948 
	C482.667877,771.107117 484.422119,771.236572 486.166565,771.270569 
	C487.770935,771.301819 489.639404,773.201782 491.033508,770.195496 
z"/>
<path fill="#000000" opacity="1.000000" stroke="none" 
	d="
M477.159821,465.001404 
	C477.166992,479.397980 477.166992,493.295074 477.166992,507.428925 
	C470.853119,507.567383 465.985962,505.268005 460.968933,503.716919 
	C459.088470,503.135529 458.842896,501.353302 458.844879,499.603546 
	C458.862122,484.468079 458.680176,469.328796 458.978149,454.198914 
	C459.109161,447.545380 465.460510,444.677307 468.612091,439.503387 
	C474.098175,443.351929 478.037750,447.146942 477.197479,454.032043 
	C476.777618,457.472595 477.142639,461.008911 477.159821,465.001404 
z"/>
<path fill="#000000" opacity="1.000000" stroke="none" 
	d="
M532.536743,505.931702 
	C532.426636,496.525726 532.394226,487.531158 532.147461,478.542419 
	C531.978821,472.397675 532.695923,466.801056 537.083923,461.843689 
	C541.344543,457.030273 544.867554,451.563934 548.714661,446.384003 
	C551.044678,447.799652 550.309143,449.649719 550.313965,451.162964 
	C550.365784,467.494812 550.224731,483.828156 550.412781,500.157959 
	C550.457703,504.059448 549.212036,506.023438 545.355957,506.657898 
	C542.244629,507.169800 539.200989,508.102997 536.136230,508.884094 
	C533.913025,509.450714 532.513245,508.920654 532.536743,505.931702 
z"/>
<path fill="#000000" opacity="1.000000" stroke="none" 
	d="
M501.301819,476.377655 
	C501.312317,486.657349 501.183319,496.483704 501.388977,506.303101 
	C501.472870,510.308411 500.031006,511.861542 496.118073,511.132019 
	C483.189117,508.721588 483.361694,513.188354 483.105072,497.172333 
	C482.913025,485.186890 482.969482,473.197174 482.960815,461.209381 
	C482.959503,459.428619 482.665833,457.533264 484.454132,455.437561 
	C488.938263,458.584686 491.915039,463.224274 495.672821,467.004364 
	C498.157471,469.503815 501.705872,471.523621 501.301819,476.377655 
z"/>
<path fill="#000000" opacity="1.000000" stroke="none" 
	d="
M589.227783,676.947510 
	C589.228149,680.731201 589.228149,684.026245 589.228149,688.670349 
	C594.482239,683.676331 598.668030,679.288452 603.291443,675.424072 
	C607.487976,671.916443 610.201294,665.270020 619.117798,667.635010 
	C614.318176,672.212952 610.480286,676.240417 606.242126,679.790039 
	C603.308105,682.247375 603.040894,684.111755 605.437744,687.169861 
	C610.429932,693.539368 615.046570,700.203125 619.994507,706.988708 
	C616.338867,709.181519 613.982239,708.084045 611.964478,705.412476 
	C608.657166,701.033325 605.363708,696.643494 602.027283,692.286621 
	C600.934509,690.859558 599.927246,689.304443 597.973816,688.401123 
	C592.889099,692.090515 588.059326,695.710754 589.103210,703.156372 
	C589.385254,705.168091 589.609314,707.882751 586.398926,708.053162 
	C582.860657,708.240967 583.070557,705.432983 583.070068,703.146179 
	C583.066528,686.854736 583.129333,670.563293 583.176025,654.271851 
	C583.181946,652.205261 583.755005,650.686218 586.283203,650.771606 
	C588.821777,650.857300 589.210022,652.509888 589.213013,654.502930 
	C589.223938,661.821533 589.223572,669.140137 589.227783,676.947510 
z"/>
<path fill="#000000" opacity="1.000000" stroke="none" 
	d="
M486.221558,698.441101 
	C485.972534,690.703308 488.609985,687.304688 495.453888,685.513184 
	C500.389740,684.221069 505.380798,684.817322 510.342926,684.747498 
	C514.447388,684.689575 515.124329,682.822449 514.158936,679.309021 
	C512.914062,674.778564 509.648743,672.890808 505.399292,672.390198 
	C500.821808,671.851013 496.439453,672.644958 492.543610,675.276855 
	C491.034149,676.296570 489.669159,677.144897 488.448761,674.950378 
	C487.556000,673.344910 488.028564,672.244812 489.404236,671.105896 
	C495.329590,666.200745 507.510651,665.354736 514.008545,669.440857 
	C518.594177,672.324463 520.056274,676.847778 520.209473,681.811646 
	C520.429871,688.955078 520.313904,696.110535 520.252625,703.260010 
	C520.236389,705.151489 520.740295,707.542053 517.850525,707.959167 
	C515.233948,708.336792 514.655396,706.274170 514.376892,704.239929 
	C499.272308,711.092896 490.064331,709.226501 486.221558,698.441101 
M513.685059,696.936584 
	C514.236755,694.234863 516.709045,690.396667 512.289124,689.589050 
	C507.327393,688.682373 502.003571,688.618103 496.955811,690.046875 
	C494.172943,690.834534 492.392517,692.738708 492.198730,695.779846 
	C491.992828,699.010010 493.559601,701.108032 496.449677,702.413940 
	C502.025787,704.933472 508.361511,703.157654 513.685059,696.936584 
z"/>
<path fill="#000000" opacity="1.000000" stroke="none" 
	d="
M598.925537,477.203918 
	C594.355530,483.530121 587.987305,486.813934 581.702759,490.618774 
	C580.392212,485.721558 580.386536,455.013702 581.690796,449.971008 
	C586.357849,452.389709 591.140747,453.333221 596.380005,451.869171 
	C599.392517,451.027344 599.120422,454.018616 599.127502,455.892487 
	C599.153870,462.857697 599.053955,469.823425 598.925537,477.203918 
z"/>
<path fill="#000000" opacity="1.000000" stroke="none" 
	d="
M605.098877,454.130859 
	C604.668884,447.287476 606.084717,441.678894 610.465088,436.659393 
	C614.565918,431.960266 617.962158,426.646332 621.669250,421.601837 
	C624.071838,423.037598 623.266174,424.882721 623.291382,426.382385 
	C623.391907,432.360626 622.911438,438.378754 623.429382,444.313721 
	C624.603333,457.765411 613.265564,462.771545 606.403625,471.019135 
	C604.554993,465.439697 605.199707,459.998840 605.098877,454.130859 
z"/>
<path fill="#000000" opacity="1.000000" stroke="none" 
	d="
M526.124512,486.149628 
	C526.130066,493.097656 526.043396,499.571442 526.180054,506.040527 
	C526.250244,509.362152 524.837097,510.770721 521.586670,511.166565 
	C507.905518,512.832703 507.706146,512.719238 507.665863,499.171753 
	C507.647278,492.920837 507.662689,486.669800 507.662689,479.648651 
	C514.136597,481.341644 519.626526,480.958649 524.635132,478.175476 
	C526.946533,480.706818 525.813293,483.315521 526.124512,486.149628 
z"/>
<path fill="#000000" opacity="1.000000" stroke="none" 
	d="
M555.667969,702.783752 
	C559.236694,702.598633 561.878235,701.211670 564.116699,699.131409 
	C565.913757,697.461243 567.808777,696.331177 569.600952,698.641174 
	C571.364136,700.913879 569.005493,702.273193 567.671204,703.507080 
	C561.449402,709.260803 550.185181,710.012085 542.438110,705.326294 
	C535.065857,700.867249 531.164612,691.332153 533.191711,682.795105 
	C535.099854,674.759155 540.040771,669.606689 547.991821,667.498108 
	C555.419250,665.528381 562.216248,666.957886 567.988220,672.119934 
	C569.285339,673.279968 571.691467,674.724243 569.507690,677.003723 
	C567.670288,678.921692 566.096436,677.701355 564.367554,676.315430 
	C558.016357,671.223999 550.933594,670.748047 544.997681,674.780640 
	C539.584961,678.457703 537.274963,685.425293 539.288879,692.000122 
	C541.492920,699.196045 546.622559,702.671082 555.667969,702.783752 
z"/>
<path fill="#000000" opacity="1.000000" stroke="none" 
	d="
M453.026184,485.986145 
	C452.805603,490.724335 453.711823,495.036316 452.272522,499.963074 
	C446.167206,498.114929 440.262238,495.863434 435.952362,491.793915 
	C433.038116,489.042175 433.409088,483.229340 435.519501,480.064178 
	C440.052246,473.266144 445.868469,467.323853 452.151642,459.850861 
	C453.817902,469.444397 452.596649,477.510925 453.026184,485.986145 
z"/>
<path fill="#000000" opacity="1.000000" stroke="none" 
	d="
M429.315308,693.990906 
	C429.310394,697.488159 429.327942,700.487915 429.292480,703.487061 
	C429.268890,705.485229 429.502136,707.797424 426.544189,707.840759 
	C423.618988,707.883606 423.675110,705.662537 423.673218,703.604980 
	C423.662415,691.773560 423.653503,679.942200 423.650879,668.110779 
	C423.649139,660.127563 423.654266,660.133423 415.875580,660.145630 
	C413.043243,660.150085 410.210480,660.143372 407.378662,660.095398 
	C405.691650,660.066895 404.428741,659.401733 404.352478,657.506470 
	C404.262909,655.279602 405.663391,654.704956 407.581879,654.705872 
	C420.246277,654.712036 432.910645,654.703918 445.575043,654.696777 
	C447.299561,654.695801 448.522308,655.248596 448.465210,657.248901 
	C448.414215,659.037842 447.520081,660.059631 445.700134,660.085327 
	C441.868652,660.139343 438.027435,660.319458 434.207275,660.120422 
	C430.559753,659.930359 429.168060,661.252075 429.245087,664.998962 
	C429.440308,674.493530 429.313263,683.994629 429.315308,693.990906 
z"/>
<path fill="#000000" opacity="1.000000" stroke="none" 
	d="
M646.687378,387.993713 
	C650.410522,386.012360 649.074097,388.903412 648.921875,390.066925 
	C647.225952,403.031647 643.616333,415.465454 638.033325,427.285065 
	C636.031372,431.523407 634.321533,435.999512 630.657532,440.454987 
	C628.949829,434.742889 630.274048,429.923065 629.625000,425.289215 
	C628.186951,415.022430 631.300842,406.483826 638.339478,398.996979 
	C641.400024,395.741516 643.785278,391.851196 646.687378,387.993713 
z"/>
<path fill="#000000" opacity="1.000000" stroke="none" 
	d="
M463.317444,701.849365 
	C463.302246,703.159180 463.293396,703.990601 463.270813,704.821533 
	C463.219269,706.717651 462.575409,708.086304 460.362091,707.985962 
	C458.157318,707.886047 457.678436,706.430237 457.679108,704.568481 
	C457.681122,699.081055 457.657654,693.593567 457.653656,688.106140 
	C457.649902,682.951233 457.563263,677.793579 457.707397,672.642639 
	C457.766174,670.542847 456.622589,667.467163 460.180115,667.101196 
	C463.861053,666.722595 462.991821,669.958069 463.533875,672.578186 
	C466.788513,669.877258 469.981384,667.559448 473.983856,667.015320 
	C475.711426,666.780396 477.817291,666.069519 478.211121,668.910522 
	C478.526428,671.185120 477.500549,672.013428 475.217133,672.436157 
	C466.765320,674.000671 463.397736,678.227356 463.326782,686.903687 
	C463.287323,691.725769 463.318298,696.548340 463.317444,701.849365 
z"/>
<path fill="#000000" opacity="1.000000" stroke="none" 
	d="
M521.932251,769.726318 
	C522.066956,775.299988 522.093933,780.445007 522.182739,785.588928 
	C522.240906,788.960632 521.233643,791.793762 517.464661,791.940369 
	C513.410278,792.098145 512.126709,789.131409 512.076050,785.618713 
	C512.006592,780.807434 512.004395,775.989380 512.189148,771.182556 
	C512.285767,768.670349 512.740845,765.967529 515.848572,765.396851 
	C518.907959,764.835144 520.941040,766.315857 521.932251,769.726318 
z"/>
<path fill="#000000" opacity="1.000000" stroke="none" 
	d="
M550.025269,779.937378 
	C550.045959,776.463257 550.018005,773.469360 550.098328,770.478394 
	C550.180298,767.427002 551.614380,765.200562 554.793823,765.092529 
	C557.944702,764.985413 559.788391,767.085510 559.897827,770.100159 
	C560.102722,775.743530 560.122253,781.405273 559.905823,787.047424 
	C559.796631,789.894409 557.902710,791.582703 554.944946,791.582581 
	C551.905457,791.582458 550.412903,789.705383 550.138367,786.896362 
	C549.928955,784.753906 550.049988,782.579285 550.025269,779.937378 
z"/>
<path fill="#000000" opacity="1.000000" stroke="none" 
	d="
M524.825195,785.574829 
	C524.832336,780.482117 524.797546,775.841797 524.870361,771.203247 
	C524.923035,767.849182 526.170654,765.154480 529.978943,765.212097 
	C533.672546,765.267883 534.411560,767.991882 534.404724,771.129517 
	C534.394897,775.602234 534.249451,780.093567 534.602844,784.541992 
	C534.882202,788.058716 534.630066,791.189026 530.604492,791.800415 
	C526.561951,792.414429 525.100281,789.620300 524.825195,785.574829 
z"/>
<path fill="#000000" opacity="1.000000" stroke="none" 
	d="
M537.696533,774.149536 
	C537.699219,772.673584 537.728943,771.673828 537.701416,770.675659 
	C537.615479,767.563416 538.941589,765.265503 542.134155,765.151489 
	C545.507507,765.030884 547.244202,767.195007 547.260315,770.575317 
	C547.286438,776.069824 547.276550,781.564636 547.257263,787.059265 
	C547.246521,790.132690 545.444946,791.782898 542.598877,791.794312 
	C539.754089,791.805725 537.893555,790.097351 537.798218,787.112732 
	C537.665405,782.953796 537.721802,778.788818 537.696533,774.149536 
z"/>
</svg>